# xmcd
#
# Track frame offsets:
#	182
#	11300
#	22975
#	35690
#	47052
#	58675
#	71310
#	82542
#	95000
#	105815
#	117740
#	127667
#	139562
#	150115
#	161940
#	171375
#	183300
#	192887
#
# Disc length: 2712 seconds
#
# Revision: 5
# Processed by: cddbd v1.5PL3 Copyright (c) Steve Scherf et al.
# Submitted via: EasyCDDAExtractor 6.5.0.1
#
DISCID=d60a9612
DTITLE=Patsy Cline - The One and Only 
DYEAR=1900
DGENRE=Country
TTITLE0=Stop The World ( and Let Me Off)
TTITLE1=Walking After Midtnight
TTITLE2=Just A Closer Walk With Thee 
TTITLE3=Just Out Of Reach 
TTITLE4=I´ve Loved and Lost Again 
TTITLE5=Fingerprints
TTITLE6=A Stranger In My Arms 
TTITLE7=A Poor Man´s Roses
TTITLE8=I Can See An Angel 
TTITLE9=If I Could Only Stay Asleep
TTITLE10=I´m Blue Again
TTITLE11=Today, Tomorrow and Forever 
TTITLE12=I Love You, Honey 
TTITLE13=Never No More
TTITLE14=Love, Love Love Me Honey
TTITLE15=Let The Teardrops Fall
TTITLE16=I´m Moving Alone
TTITLE17=Stop, Look and Listen
EXTD=
EXTT0=
EXTT1=
EXTT2=
EXTT3=
EXTT4=
EXTT5=
EXTT6=
EXTT7=
EXTT8=
EXTT9=
EXTT10=
EXTT11=
EXTT12=
EXTT13=
EXTT14=
EXTT15=
EXTT16=
EXTT17=
PLAYORDER=
